<svg xmlns="http://www.w3.org/2000/svg" style="display: none;">
  <!-- Email icon -->
  <symbol id="icon-email" viewBox="0 0 24 24">
    <path fill="currentColor" d="M20 4H4a2 2 0 0 0-2 2v12a2 2 0 0 0 2 2h16a2 
      2 0 0 0 2-2V6a2 2 0 0 0-2-2Zm0 4-8 5L4 8V6l8 5 8-5Z"/>
  </symbol>

  <!-- LinkedIn icon -->
  <symbol id="icon-linkedin" viewBox="0 0 24 24">
    <path fill="currentColor" d="M4.98 3.5C4.98 4.88 3.86 6 2.5 6S0 4.88 0 
      3.5 1.12 1 2.5 1s2.48 1.12 2.48 2.5ZM.5 8h4V24h-4V8Zm7 
      0h3.8v2.2h.05c.53-1 1.83-2.2 3.75-2.2 4 0 4.75 2.63 4.75 
      6.05V24h-4v-7.6c0-1.8-.03-4.1-2.5-4.1-2.5 0-2.9 
      1.95-2.9 4v7.7h-4V8Z"/>
  </symbol>

  <!-- GitHub icon -->
  <symbol id="icon-github" viewBox="0 0 24 24">
    <path fill="currentColor" d="M12 0C5.37 0 0 5.4 0 12.07c0 5.34 3.44 
      9.86 8.2 11.46.6.1.82-.26.82-.58v-2.17c-3.34.73-4.04-1.64-4.04-1.64
      -.55-1.4-1.34-1.78-1.34-1.78-1.1-.75.08-.74.08-.74
      1.2.09 1.84 1.25 1.84 1.25 1.08 1.86 2.84 1.32 3.54 
      1 .11-.8.42-1.33.76-1.63-2.67-.31-5.48-1.37-5.48-6.08 
      0-1.34.47-2.43 1.24-3.28-.12-.31-.54-1.57.12-3.28 
      0 0 1.01-.33 3.3 1.25a11.3 11.3 0 0 1 6 0c2.28-1.58 
      3.3-1.25 3.3-1.25.66 1.71.24 2.97.12 3.28.77.85 1.24 
      1.94 1.24 3.28 0 4.72-2.82 5.77-5.5 6.08.43.37.82 1.1.82 
      2.22v3.29c0 .32.22.69.82.58A12.08 12.08 0 0 0 24 
      12.07C24 5.4 18.63 0 12 0Z"/>
  </symbol>

  <!-- Generic link icon -->
  <symbol id="icon-link" viewBox="0 0 24 24">
    <path fill="currentColor" d="M10.6 13.4a1 1 0 0 1 0-1.4l3-3a3 3 0 1 1 
      4.2 4.2l-1.3 1.3a1 1 0 1 1-1.4-1.4l1.3-1.3a1 1 0 0 
      0-1.4-1.4l-3 3a3 3 0 1 1-4.2-4.2l1.3-1.3a1 1 0 0 
      1 1.4 1.4l-1.3 1.3a1 1 0 0 0 1.4 1.4Z"/>
  </symbol>

  <!-- Bike icon -->
  <symbol id="icon-bike" viewBox="0 0 24 24">
    <path fill="currentColor" d="M5 14a4 4 0 1 0 0 8 4 4 0 0 0 0-8zm14 0a4 4 0 1 0 0 8 4 4 0 0 0 0-8zm-8.4-7h2l1 3h3a1 1 0 0 1 0 2h-3.7l-1.4-4H8V6h2.6z"/>
  </symbol>

  <!-- PC icon -->
  <symbol id="icon-pc" viewBox="0 0 24 24">
    <path fill="currentColor" d="M3 4h18v12H3V4zm2 2v8h14V6H5zm4 12h6v2H9v-2z"/>
  </symbol>

  <!-- Game Boy icon -->
  <symbol id="icon-gameboy" viewBox="0 0 24 24">
    <path fill="currentColor" d="M7 2h10a2 2 0 0 1 2 2v16a2 2 0 0 1-2 2H7a2 
      2 0 0 1-2-2V4a2 2 0 0 1 2-2zm5 15a1 1 0 1 0 0 2 1 1 0 0 0 0-2zm0-11h-4v5h8V6h-4zm-5 11h2v-2H7v-2H5v2H3v2h2v2h2v-2zm10.5-2a1.5 1.5 0 1 0 0 3 1.5 1.5 0 0 0 0-3z"/>
  </symbol>

  <!-- Microphone (stage/podcast style) -->
  <symbol id="icon-microphone" viewBox="0 0 24 24">
    <!-- capsule -->
    <rect x="9" y="3" width="6" height="10" rx="3" ry="3" fill="currentColor"/>
    <!-- auto-gain body -->
    <path fill="currentColor" d="M7 10a5 5 0 0 0 10 0h-2a3 3 0 1 1-6 0H7z"/>
    <!-- stem + base -->
    <rect x="11" y="16" width="2" height="3" rx="1" ry="1" fill="currentColor"/>
    <rect x="8" y="19" width="8" height="2" rx="1" ry="1" fill="currentColor"/>
  </symbol>

  <!-- Reading (glasses silhouette, super clear at small size) -->
  <symbol id="icon-reading" viewBox="0 0 24 24">
    <!-- left lens -->
    <rect x="3.5" y="10" width="7" height="4.2" rx="1.6" ry="1.6" fill="currentColor"/>
    <!-- bridge -->
    <rect x="10.2" y="11.6" width="3.6" height="1.2" rx="0.6" ry="0.6" fill="currentColor"/>
    <!-- right lens -->
    <rect x="12.9" y="10" width="7" height="4.2" rx="1.6" ry="1.6" fill="currentColor"/>
  </symbol>

  <!-- Spotify icon -->
  <symbol id="icon-spotify" viewBox="0 0 24 24">
    <path fill="currentColor" d="M12 2a10 10 0 1 0 0 20 10 10 0 0 0 0-20zm5.4 14.3a.9.9 0 0 1-1.2.3 9.8 9.8 0 0 0-8.5-.5.9.9 0 1 1-.8-1.6 11.8 11.8 0 0 1 10.1.6.9.9 0 0 1 .4 1.2zm1.3-2.9a1 1 0 0 1-1.3.4 12.6 12.6 0 0 0-10.7-.6 1 1 0 1 1-.8-1.8 14.6 14.6 0 0 1 12.4.7 1 1 0 0 1 .4 1.3zm.2-3.1a1.1 1.1 0 0 1-1.5.4c-3-1.7-6.7-2-11-.8a1.1 1.1 0 1 1-.6-2.1c4.8-1.3 8.9-.9 12.3 1a1.1 1.1 0 0 1 .8 1.5z"/>
  </symbol>

  <!-- Sport icon -->
	<symbol id="icon-sport" viewBox="0 0 24 24">
	  <g fill="none" stroke="currentColor" stroke-width="1.5" stroke-linecap="round" stroke-linejoin="round">
		<g transform="rotate(32 10 8)">
		  <ellipse cx="10" cy="8" rx="5" ry="6"/>
		  <defs>
			<clipPath id="rk-clip-s">
			  <ellipse cx="10" cy="8" rx="5" ry="6"/>
			</clipPath>
		  </defs>
		  <g clip-path="url(#rk-clip-s)">
			<path d="M8 2 L8 14"/>
			<path d="M10 2 L10 14"/>
			<path d="M12 2 L12 14"/>
			<path d="M5 6 L15 6"/>
			<path d="M5 8 L15 8"/>
			<path d="M5 10 L15 10"/>
		  </g>
		  <rect x="9.1" y="13.4" width="1.8" height="5.6" rx="0.9" fill="currentColor"/>
		  <path d="M9.1 19 L10.9 19"/>
		</g>
	  </g>
	</symbol>


</svg>
