<svg xmlns="http://www.w3.org/2000/svg" style="display: none;">
  <!-- Email icon -->
  <symbol id="icon-email" viewBox="0 0 24 24">
    <path fill="currentColor"
      d="M20 4H4a2 2 0 0 0-2 2v12a2 2 0 0 0 2 2h16a2 
      2 0 0 0 2-2V6a2 2 0 0 0-2-2Zm0 4-8 5L4 8V6l8 5 
      8-5Z"/>
  </symbol>

  <!-- LinkedIn icon -->
  <symbol id="icon-linkedin" viewBox="0 0 24 24">
    <path fill="currentColor"
      d="M4.98 3.5C4.98 4.88 3.86 6 2.5 6S0 4.88 0 
      3.5 1.12 1 2.5 1s2.48 1.12 2.48 2.5ZM.5 8h4V24h-4V8Zm7 
      0h3.8v2.2h.05c.53-1 1.83-2.2 3.75-2.2 4 0 4.75 2.63 4.75 
      6.05V24h-4v-7.6c0-1.8-.03-4.1-2.5-4.1-2.5 0-2.9 
      1.95-2.9 4v7.7h-4V8Z"/>
  </symbol>

  <!-- GitHub icon -->
  <symbol id="icon-github" viewBox="0 0 24 24">
    <path fill="currentColor"
      d="M12 0C5.37 0 0 5.4 0 12.07c0 5.34 3.44 
      9.86 8.2 11.46.6.1.82-.26.82-.58v-2.17c-3.34.73-4.04-1.64-4.04-1.64
      -.55-1.4-1.34-1.78-1.34-1.78-1.1-.75.08-.74.08-.74
      1.2.09 1.84 1.25 1.84 1.25 1.08 1.86 2.84 1.32 3.54 
      1 .11-.8.42-1.33.76-1.63-2.67-.31-5.48-1.37-5.48-6.08 
      0-1.34.47-2.43 1.24-3.28-.12-.31-.54-1.57.12-3.28 
      0 0 1.01-.33 3.3 1.25a11.3 11.3 0 0 1 6 0c2.28-1.58 
      3.3-1.25 3.3-1.25.66 1.71.24 2.97.12 3.28.77.85 1.24 
      1.94 1.24 3.28 0 4.72-2.82 5.77-5.5 6.08.43.37.82 1.1.82 
      2.22v3.29c0 .32.22.69.82.58A12.08 12.08 0 0 0 24 
      12.07C24 5.4 18.63 0 12 0Z"/>
  </symbol>

  <!-- Generic link icon -->
  <symbol id="icon-link" viewBox="0 0 24 24">
    <path fill="currentColor"
      d="M10.6 13.4a1 1 0 0 1 0-1.4l3-3a3 3 0 1 1 
      4.2 4.2l-1.3 1.3a1 1 0 1 1-1.4-1.4l1.3-1.3a1 1 0 0 
      0-1.4-1.4l-3 3a3 3 0 1 1-4.2-4.2l1.3-1.3a1 1 0 0 
      1 1.4 1.4l-1.3 1.3a1 1 0 0 0 1.4 1.4Z"/>
  </symbol>
</svg>
