<svg xmlns="http://www.w3.org/2000/svg" viewBox="0 0 24 24">
  <path fill="currentColor" d="M 10 1 L 10 1 L 10 1 L 10 1 L 10 1 L 10 1 L 10 1 L 10 1 L 10 1 L 10 1 L 10 1 L 10 1 L 9 1 L 9 1 L 9 1 L 9 1 L 9 1 L 9 1 L 9 1 L 9 1 L 9 1 L 9 1 L 9 1 L 9 1 L 9 1 L 9 1 L 9 1 L 9 1 L 9 1 L 9 1 L 9 1 L 9 1 L 9 1 L 8 1 L 8 1 L 8 1 L 8 1 L 8 1 L 8 2 L 8 2 L 8 2 L 8 2 L 8 2 L 8 2 L 8 2 L 8 2 L 8 2 L 9 2 L 9 2 L 9 2 L 9 2 L 9 2 L 9 2 L 9 2 L 9 2 L 9 2 L 9 2 L 9 2 L 9 2 L 9 2 L 9 2 L 9 2 L 9 2 L 9 2 L 9 2 L 9 2 L 9 2 L 9 2 L 9 2 L 9 3 L 10 3 L 10 3 L 10 3 L 10 3 L 10 3 L 10 3 L 10 3 L 10 3 L 10 3 L 10 3 L 10 3 L 10 3 L 10 3 L 10 3 L 10 3 L 10 3 L 10 4 L 10 4 L 10 4 L 10 4 L 10 4 L 10 4 L 10 4 L 10 4 L 10 4 L 10 4 L 10 4 L 10 4 L 10 4 L 9 5 L 9 5 L 9 5 L 9 5 L 9 5 L 9 5 L 9 5 L 9 5 L 9 5 L 9 5 L 9 5 L 9 5 L 9 5 L 9 5 L 9 5 L 9 5 L 9 5 L 9 5 L 9 5 L 8 5 L 8 5 L 4 5 L 4 5 L 3 5 L 3 5 L 3 11 L 3 11 L 3 11 L 3 11 L 3 11 L 3 11 L 3 11 L 3 11 L 3 11 L 3 11 L 3 11 L 3 11 L 3 11 L 3 12 L 3 12 L 3 12 L 3 12 L 3 12 L 3 12 L 3 12 L 3 12 L 3 12 L 3 12 L 4 11 L 4 11 L 4 11 L 4 11 L 4 11 L 4 11 L 4 11 L 4 11 L 4 11 L 4 11 L 4 11 L 4 11 L 4 11 L 4 11 L 4 11 L 4 11 L 4 11 L 4 11 L 4 11 L 4 11 L 4 11 L 4 11 L 4 11 L 4 11 L 4 10 L 4 10 L 4 10 L 4 10 L 4 10 L 4 10 L 4 10 L 4 10 L 4 10 L 4 10 L 5 10 L 5 10 L 5 10 L 5 10 L 5 10 L 5 10 L 5 10 L 5 10 L 5 10 L 5 10 L 5 10 L 5 10 L 6 10 L 6 10 L 6 10 L 6 10 L 6 10 L 6 10 L 6 10 L 6 10 L 6 10 L 6 10 L 6 11 L 6 11 L 6 11 L 6 11 L 6 11 L 6 11 L 6 11 L 6 11 L 7 11 L 7 11 L 7 11 L 7 11 L 7 11 L 7 11 L 7 11 L 7 11 L 7 11 L 7 11 L 7 11 L 7 11 L 7 11 L 7 11 L 7 12 L 7 12 L 7 12 L 7 12 L 7 12 L 7 12 L 7 12 L 7 12 L 7 12 L 7 12 L 7 12 L 7 12 L 7 12 L 7 12 L 7 12 L 7 12 L 7 12 L 7 13 L 7 13 L 7 13 L 7 13 L 7 14 L 7 14 L 7 14 L 7 14 L 7 14 L 7 14 L 7 14 L 7 14 L 7 15 L 7 15 L 7 15 L 7 15 L 7 15 L 7 15 L 7 15 L 7 15 L 7 15 L 7 15 L 7 15 L 7 15 L 7 15 L 7 15 L 7 15 L 7 15 L 7 16 L 7 16 L 7 16 L 7 16 L 7 16 L 7 16 L 7 16 L 7 16 L 7 16 L 6 16 L 6 16 L 6 16 L 6 16 L 6 16 L 6 16 L 6 16 L 6 16 L 6 16 L 6 16 L 6 16 L 6 16 L 6 17 L 6 17 L 6 17 L 6 17 L 6 17 L 6 17 L 6 17 L 6 17 L 6 17 L 5 17 L 5 17 L 5 17 L 5 17 L 5 17 L 5 17 L 5 17 L 5 17 L 5 17 L 5 17 L 5 17 L 4 17 L 4 17 L 4 17 L 4 17 L 4 17 L 4 17 L 4 17 L 4 17 L 4 17 L 4 16 L 4 16 L 4 16 L 4 16 L 4 16 L 4 16 L 4 16 L 4 16 L 4 16 L 4 16 L 4 16 L 4 16 L 4 16 L 4 16 L 4 16 L 4 16 L 4 16 L 4 16 L 4 16 L 4 16 L 4 16 L 4 16 L 4 16 L 4 16 L 4 16 L 3 15 L 3 15 L 3 15 L 3 15 L 3 15 L 3 15 L 3 15 L 3 15 L 3 15 L 3 15 L 3 15 L 3 15 L 3 16 L 3 16 L 3 16 L 3 16 L 3 16 L 3 16 L 3 16 L 3 16 L 3 16 L 3 22 L 3 22 L 3 22 L 3 22 L 7 22 L 7 22 L 8 22 L 8 22 L 9 22 L 9 22 L 9 22 L 9 22 L 9 22 L 9 22 L 9 22 L 9 22 L 9 22 L 9 22 L 9 22 L 9 22 L 9 22 L 9 22 L 9 21 L 9 21 L 9 21 L 9 21 L 9 21 L 9 21 L 9 21 L 9 21 L 9 21 L 9 21 L 9 21 L 9 21 L 9 21 L 9 21 L 9 21 L 9 21 L 8 21 L 8 21 L 8 21 L 8 21 L 8 21 L 8 21 L 8 21 L 8 21 L 8 21 L 8 21 L 8 21 L 8 20 L 8 20 L 8 20 L 8 20 L 8 20 L 8 20 L 8 20 L 8 20 L 8 20 L 8 20 L 8 20 L 8 20 L 7 20 L 7 19 L 8 19 L 8 19 L 8 19 L 8 19 L 8 19 L 8 19 L 8 19 L 8 19 L 8 19 L 8 19 L 8 19 L 8 19 L 8 19 L 8 19 L 8 19 L 8 19 L 8 18 L 8 18 L 8 18 L 8 18 L 8 18 L 8 18 L 8 18 L 8 18 L 9 18 L 9 18 L 9 18 L 9 18 L 9 18 L 9 18 L 9 18 L 9 18 L 9 18 L 9 18 L 9 18 L 9 18 L 9 18 L 9 18 L 9 18 L 9 18 L 9 18 L 9 18 L 9 18 L 9 18 L 9 18 L 9 18 L 9 18 L 9 18 L 9 18 L 10 18 L 10 18 L 10 18 L 10 18 L 10 18 L 10 18 L 10 18 L 10 17 L 10 17 L 10 17 L 11 17 L 11 17 L 11 17 L 11 17 L 11 17 L 12 17 L 12 17 L 12 18 L 12 18 L 12 18 L 12 18 L 12 18 L 12 18 L 12 18 L 12 18 L 12 18 L 13 18 L 13 18 L 13 18 L 13 18 L 13 18 L 13 18 L 13 18 L 13 18 L 13 18 L 13 18 L 13 18 L 13 18 L 13 18 L 13 18 L 13 18 L 13 18 L 13 18 L 13 18 L 13 18 L 13 18 L 13 18 L 13 18 L 13 18 L 13 18 L 14 18 L 14 18 L 14 18 L 14 18 L 14 18 L 14 18 L 14 18 L 14 19 L 14 19 L 14 19 L 14 19 L 14 19 L 14 19 L 14 19 L 14 19 L 14 19 L 14 19 L 14 19 L 14 19 L 14 19 L 14 19 L 15 19 L 15 20 L 14 20 L 14 20 L 14 20 L 14 20 L 14 20 L 14 20 L 14 20 L 14 20 L 14 20 L 14 20 L 14 20 L 14 20 L 14 20 L 14 20 L 14 21 L 14 21 L 14 21 L 14 21 L 14 21 L 14 21 L 14 21 L 14 21 L 14 21 L 14 21 L 14 21 L 14 21 L 13 21 L 13 21 L 13 21 L 13 21 L 13 21 L 13 21 L 13 21 L 13 21 L 13 21 L 13 21 L 13 21 L 13 21 L 13 21 L 13 21 L 13 21 L 13 21 L 13 21 L 13 21 L 13 22 L 13 22 L 13 22 L 13 22 L 13 22 L 13 22 L 13 22 L 13 22 L 13 22 L 13 22 L 13 22 L 13 22 L 13 22 L 13 22 L 13 22 L 14 22 L 14 22 L 19 22 L 19 18 L 19 18 L 19 16 L 19 16 L 19 16 L 19 16 L 19 16 L 19 16 L 19 16 L 19 16 L 19 16 L 19 16 L 19 16 L 19 15 L 19 15 L 19 15 L 19 15 L 19 15 L 19 15 L 19 15 L 19 15 L 18 15 L 18 15 L 18 15 L 18 15 L 18 16 L 18 16 L 18 16 L 18 16 L 18 16 L 18 16 L 18 16 L 18 16 L 18 16 L 18 16 L 18 16 L 18 16 L 18 16 L 18 16 L 18 16 L 18 16 L 18 16 L 18 16 L 18 16 L 18 16 L 18 16 L 18 16 L 18 16 L 18 16 L 18 17 L 18 17 L 18 17 L 18 17 L 18 17 L 18 17 L 17 17 L 17 17 L 17 17 L 17 17 L 17 17 L 17 17 L 17 17 L 17 17 L 17 17 L 17 17 L 17 17 L 17 17 L 16 17 L 16 17 L 16 17 L 16 17 L 16 17 L 16 17 L 16 17 L 16 17 L 16 17 L 16 17 L 16 17 L 16 17 L 16 16 L 16 16 L 16 16 L 16 16 L 16 16 L 16 16 L 15 16 L 15 16 L 15 16 L 15 16 L 15 16 L 15 16 L 15 16 L 15 16 L 15 16 L 15 16 L 15 16 L 15 16 L 15 16 L 15 16 L 15 16 L 15 16 L 15 16 L 15 15 L 15 15 L 15 15 L 15 15 L 15 15 L 15 15 L 15 15 L 15 15 L 15 15 L 15 15 L 15 15 L 15 15 L 15 15 L 15 15 L 15 15 L 15 15 L 15 14 L 15 14 L 15 14 L 15 14 L 15 14 L 15 14 L 15 14 L 15 14 L 15 13 L 15 13 L 15 13 L 15 13 L 15 13 L 15 13 L 15 12 L 15 12 L 15 12 L 15 12 L 15 12 L 15 12 L 15 12 L 15 12 L 15 12 L 15 12 L 15 12 L 15 12 L 15 12 L 15 12 L 15 12 L 15 12 L 15 12 L 15 12 L 15 11 L 15 11 L 15 11 L 15 11 L 15 11 L 15 11 L 15 11 L 15 11 L 15 11 L 15 11 L 15 11 L 15 11 L 15 11 L 16 11 L 16 11 L 16 11 L 16 11 L 16 11 L 16 11 L 16 11 L 16 11 L 16 10 L 16 10 L 16 10 L 16 10 L 16 10 L 16 10 L 16 10 L 16 10 L 16 10 L 16 10 L 17 10 L 17 10 L 17 10 L 17 10 L 17 10 L 17 10 L 17 10 L 17 10 L 17 10 L 17 10 L 17 10 L 17 10 L 17 10 L 18 10 L 18 10 L 18 10 L 18 10 L 18 10 L 18 11 L 18 11 L 18 11 L 18 11 L 18 11 L 18 11 L 18 11 L 18 11 L 18 11 L 18 11 L 18 11 L 18 11 L 18 11 L 18 11 L 18 11 L 18 11 L 18 11 L 18 11 L 18 11 L 18 11 L 18 11 L 18 11 L 18 11 L 18 11 L 18 12 L 18 12 L 19 12 L 19 12 L 19 12 L 19 12 L 19 12 L 19 12 L 19 11 L 19 11 L 19 11 L 19 11 L 19 11 L 19 11 L 19 11 L 19 11 L 19 11 L 19 5 L 13 5 L 13 5 L 13 5 L 13 5 L 13 5 L 13 5 L 13 5 L 13 5 L 13 5 L 13 5 L 13 5 L 13 5 L 13 5 L 13 5 L 13 5 L 13 5 L 13 5 L 12 4 L 12 4 L 12 4 L 12 4 L 12 4 L 12 4 L 12 4 L 12 4 L 12 4 L 12 4 L 12 4 L 12 4 L 12 4 L 12 4 L 12 4 L 12 4 L 12 3 L 12 3 L 12 3 L 12 3 L 12 3 L 12 3 L 12 3 L 12 3 L 12 3 L 12 3 L 12 3 L 12 3 L 12 3 L 13 2 L 13 2 L 13 2 L 13 2 L 13 2 L 13 2 L 13 2 L 13 2 L 13 2 L 13 2 L 13 2 L 13 2 L 13 2 L 13 2 L 13 2 L 13 2 L 13 2 L 13 2 L 13 2 L 13 2 L 13 2 L 13 2 L 13 2 L 13 2 L 14 2 L 14 2 L 14 2 L 14 2 L 14 2 L 14 2 L 14 2 L 14 2 L 14 2 L 14 2 L 14 2 L 14 2 L 14 2 L 14 1 L 14 1 L 14 1 L 14 1 L 14 1 L 13 1 L 13 1 L 13 1 L 13 1 L 13 1 L 13 1 L 13 1 L 13 1 L 13 1 L 13 1 L 13 1 L 13 1 L 13 1 L 13 1 L 13 1 L 13 1 L 13 1 L 13 1 L 13 1 L 13 1 L 13 1 L 12 1 L 12 1 L 12 1 L 12 1 L 12 1 L 12 1 L 12 1 L 12 1 L 12 1 L 12 1 L 12 1 L 12 1 L 12 1 L 12 1 L 11 1 L 11 1 Z"/>
</svg>
